<!DOCTYPE svg PUBLIC "-//W3C//DTD SVG 1.1//EN" "http://www.w3.org/Graphics/SVG/1.1/DTD/svg11.dtd">
<!-- Uploaded to: SVG Repo, www.svgrepo.com, Transformed by: SVG Repo Mixer Tools -->
<svg fill="#000000" width="800px" height="800px" viewBox="0 0 24 24" id="store" data-name="Line Color" xmlns="http://www.w3.org/2000/svg" class="icon line-color">
<g id="SVGRepo_bgCarrier" stroke-width="0"/>
<g id="SVGRepo_tracerCarrier" stroke-linecap="round" stroke-linejoin="round"/>
<g id="SVGRepo_iconCarrier">
<path id="secondary" d="M19,13v7a1,1,0,0,1-1,1H6a1,1,0,0,1-1-1V13" style="fill: none; stroke: #776BCC; stroke-linecap: round; stroke-linejoin: round; stroke-width: 2;"/>
<path id="primary" d="M12,3h6.25a1,1,0,0,1,1,.73l1.58,5.55A5.22,5.22,0,0,1,21,10.75h0A2.25,2.25,0,0,1,18.75,13h0a2.25,2.25,0,0,1-2.25-2.25A2.25,2.25,0,0,1,14.25,13h0A2.25,2.25,0,0,1,12,10.75" style="fill: none; stroke: #272020; stroke-linecap: round; stroke-linejoin: round; stroke-width: 2;"/>
<path id="primary-2" data-name="primary" d="M12,3H5.75a1,1,0,0,0-1,.73L3.21,9.28A5.22,5.22,0,0,0,3,10.75H3A2.25,2.25,0,0,0,5.25,13h0A2.25,2.25,0,0,0,7.5,10.75,2.25,2.25,0,0,0,9.75,13h0A2.25,2.25,0,0,0,12,10.75" style="fill: none; stroke: #272020; stroke-linecap: round; stroke-linejoin: round; stroke-width: 2;"/>
</g>
</svg>